<svg width="220" height="220" viewBox="0 0 220 220" fill="none" xmlns="http://www.w3.org/2000/svg">
<g clip-path="url(#clip0_54401_947)">
<path d="M12 138C18.6667 144.667 25.3333 144.667 32 138C38.6667 131.333 45.3333 131.333 52 138C58.6667 144.667 65.3333 144.667 72 138C78.6667 131.333 85.3333 131.333 92 138C98.6667 144.667 105.333 144.667 112 138C118.667 131.333 125.333 131.333 132 138C138.667 144.667 145.333 144.667 152 138" stroke="#D4DEEE" stroke-width="10"/>
<path d="M21 138H142L124.5 194H39.5L21 138Z" fill="#D4DEEE"/>
<path d="M151.419 97.7938C161.123 114.602 164.386 134.365 160.6 153.401C156.813 172.437 146.236 189.447 130.838 201.262C115.44 213.077 96.272 218.892 76.9049 217.623C57.5378 216.353 39.2926 208.086 25.5686 194.362C11.8446 180.638 3.57777 162.393 2.30838 143.026C1.03898 123.659 6.85356 104.491 18.6688 89.0929C30.484 73.695 47.4941 63.1175 66.5298 59.331C85.5655 55.5446 105.329 58.8074 122.137 68.5118L110.137 89.2964C98.3712 82.5034 84.537 80.2193 71.212 82.8699C57.887 85.5204 45.9799 92.9247 37.7093 103.703C29.4386 114.482 25.3684 127.899 26.257 141.456C27.1456 155.013 32.9323 167.785 42.5391 177.392C52.1459 186.999 64.9176 192.785 78.4745 193.674C92.0315 194.562 105.449 190.492 116.228 182.222C127.006 173.951 134.411 162.044 137.061 148.719C139.712 135.394 137.428 121.56 130.635 109.794L151.419 97.7938Z" fill="#D4DEEE"/>
<line x1="101.936" y1="81.2254" x2="172.647" y2="10.5147" stroke="#D4DEEE" stroke-width="24"/>
<line x1="138.706" y1="117.995" x2="209.416" y2="47.2843" stroke="#D4DEEE" stroke-width="24"/>
</g>
<defs>
<clipPath id="clip0_54401_947">
<rect width="220" height="220" fill="white"/>
</clipPath>
</defs>
</svg>
