<svg width="815" height="220" viewBox="0 0 815 220" fill="none" xmlns="http://www.w3.org/2000/svg">
<g clip-path="url(#clip0_54406_939)">
<path d="M12 138C18.6667 144.667 25.3333 144.667 32 138C38.6667 131.333 45.3333 131.333 52 138C58.6667 144.667 65.3333 144.667 72 138C78.6667 131.333 85.3333 131.333 92 138C98.6667 144.667 105.333 144.667 112 138C118.667 131.333 125.333 131.333 132 138C138.667 144.667 145.333 144.667 152 138" stroke="#D4DEEE" stroke-width="10"/>
<path d="M21 138H142L124.5 194H39.5L21 138Z" fill="#D4DEEE"/>
<path d="M151.419 97.7938C161.123 114.602 164.386 134.365 160.6 153.401C156.813 172.437 146.236 189.447 130.838 201.262C115.44 213.077 96.272 218.892 76.9049 217.623C57.5378 216.353 39.2926 208.086 25.5686 194.362C11.8446 180.638 3.57777 162.393 2.30837 143.026C1.03898 123.659 6.85356 104.491 18.6688 89.0929C30.484 73.695 47.4941 63.1175 66.5298 59.331C85.5655 55.5446 105.329 58.8074 122.137 68.5118L110.137 89.2964C98.3712 82.5034 84.537 80.2193 71.212 82.8699C57.887 85.5204 45.9799 92.9247 37.7093 103.703C29.4386 114.482 25.3684 127.899 26.257 141.456C27.1456 155.013 32.9323 167.785 42.5391 177.392C52.1459 186.999 64.9176 192.785 78.4745 193.674C92.0315 194.562 105.449 190.492 116.228 182.222C127.006 173.951 134.411 162.044 137.061 148.719C139.712 135.394 137.428 121.56 130.635 109.794L151.419 97.7938Z" fill="#D4DEEE"/>
<line x1="101.936" y1="81.2254" x2="172.647" y2="10.5147" stroke="#D4DEEE" stroke-width="24"/>
<line x1="138.706" y1="117.995" x2="209.416" y2="47.2843" stroke="#D4DEEE" stroke-width="24"/>
</g>
<path d="M262.082 144.398H302.805V156H247.961V70.6875H262.082V144.398ZM359.641 156C359.211 155.219 358.859 154.281 358.586 153.188C358.352 152.055 358.137 150.883 357.941 149.672C356.965 150.688 355.852 151.664 354.602 152.602C353.391 153.5 352.023 154.281 350.5 154.945C348.977 155.648 347.336 156.195 345.578 156.586C343.82 156.977 341.926 157.172 339.895 157.172C336.613 157.172 333.605 156.703 330.871 155.766C328.176 154.789 325.871 153.461 323.957 151.781C322.004 150.141 320.48 148.168 319.387 145.863C318.332 143.52 317.805 141 317.805 138.305C317.805 134.828 318.488 131.762 319.855 129.105C321.262 126.41 323.293 124.184 325.949 122.426C328.41 120.785 331.438 119.535 335.031 118.676C338.664 117.816 342.766 117.387 347.336 117.387H357.531V113.109C357.531 111.469 357.238 109.984 356.652 108.656C356.105 107.328 355.305 106.176 354.25 105.199C353.117 104.223 351.73 103.48 350.09 102.973C348.488 102.426 346.633 102.152 344.523 102.152C342.609 102.152 340.93 102.387 339.484 102.855C338.078 103.324 336.906 103.969 335.969 104.789C335.031 105.531 334.328 106.449 333.859 107.543C333.43 108.598 333.215 109.73 333.215 110.941H319.152C319.191 108.402 319.797 105.961 320.969 103.617C322.141 101.273 323.859 99.2031 326.125 97.4062C328.312 95.5703 331.008 94.125 334.211 93.0703C337.453 91.9766 341.145 91.4297 345.285 91.4297C348.996 91.4297 352.453 91.8984 355.656 92.8359C358.898 93.7344 361.691 95.082 364.035 96.8789C366.379 98.6758 368.215 100.961 369.543 103.734C370.871 106.469 371.535 109.633 371.535 113.227V141.41C371.535 144.262 371.73 146.84 372.121 149.145C372.551 151.41 373.156 153.363 373.938 155.004V156H359.641ZM342.59 145.922C344.426 145.922 346.125 145.688 347.688 145.219C349.289 144.75 350.734 144.145 352.023 143.402C353.312 142.66 354.426 141.82 355.363 140.883C356.301 139.945 357.023 138.969 357.531 137.953V126.234H348.508C345.461 126.234 342.824 126.527 340.598 127.113C338.371 127.66 336.594 128.461 335.266 129.516C334.094 130.414 333.215 131.488 332.629 132.738C332.082 133.988 331.809 135.395 331.809 136.957C331.809 138.246 332.043 139.457 332.512 140.59C332.98 141.684 333.664 142.621 334.562 143.402C335.461 144.184 336.574 144.809 337.902 145.277C339.23 145.707 340.793 145.922 342.59 145.922ZM446.945 124.945C446.945 127.875 446.73 130.668 446.301 133.324C445.871 135.98 445.246 138.441 444.426 140.707C443.488 143.402 442.238 145.844 440.676 148.031C439.113 150.219 437.238 152.035 435.051 153.48C433.293 154.652 431.32 155.551 429.133 156.176C426.984 156.84 424.641 157.172 422.102 157.172C419.523 157.172 417.18 156.859 415.07 156.234C412.961 155.609 411.066 154.691 409.387 153.48C408.527 152.855 407.707 152.191 406.926 151.488C406.184 150.746 405.461 149.945 404.758 149.086L404.113 156H391.457V66H405.461V98.8125C406.281 97.7969 407.18 96.8789 408.156 96.0586C409.133 95.2383 410.188 94.5156 411.32 93.8906C412.805 93.0703 414.426 92.4648 416.184 92.0742C417.98 91.6445 419.914 91.4297 421.984 91.4297C424.719 91.4297 427.219 91.8008 429.484 92.543C431.789 93.2461 433.859 94.2617 435.695 95.5898C437.258 96.6836 438.645 98.0312 439.855 99.6328C441.105 101.195 442.199 102.914 443.137 104.789C444.387 107.406 445.324 110.316 445.949 113.52C446.613 116.723 446.945 120.121 446.945 123.715V124.945ZM432.941 123.715C432.941 121.918 432.824 120.18 432.59 118.5C432.395 116.781 432.102 115.18 431.711 113.695C431.164 111.898 430.441 110.277 429.543 108.832C428.684 107.348 427.512 106.098 426.027 105.082C425.051 104.379 423.938 103.852 422.688 103.5C421.438 103.148 420.031 102.973 418.469 102.973C416.555 102.973 414.836 103.246 413.312 103.793C411.789 104.301 410.461 105.043 409.328 106.02C408.508 106.684 407.766 107.465 407.102 108.363C406.477 109.223 405.93 110.16 405.461 111.176V137.426C406.008 138.598 406.652 139.672 407.395 140.648C408.176 141.586 409.055 142.426 410.031 143.168C411.125 143.949 412.375 144.574 413.781 145.043C415.227 145.473 416.828 145.688 418.586 145.688C420.188 145.688 421.633 145.492 422.922 145.102C424.211 144.672 425.363 144.105 426.379 143.402C427.746 142.426 428.859 141.195 429.719 139.711C430.617 138.188 431.301 136.488 431.77 134.613C432.16 133.207 432.453 131.684 432.648 130.043C432.844 128.402 432.941 126.703 432.941 124.945V123.715ZM460.715 123.715C460.715 119.105 461.379 114.848 462.707 110.941C464.035 106.996 465.969 103.578 468.508 100.688C471.008 97.7969 474.074 95.5312 477.707 93.8906C481.34 92.25 485.48 91.4297 490.129 91.4297C494.777 91.4297 498.918 92.25 502.551 93.8906C506.223 95.5312 509.328 97.7969 511.867 100.688C514.367 103.578 516.281 106.996 517.609 110.941C518.938 114.848 519.602 119.105 519.602 123.715V124.945C519.602 129.594 518.938 133.871 517.609 137.777C516.281 141.684 514.367 145.082 511.867 147.973C509.367 150.863 506.281 153.129 502.609 154.77C498.977 156.41 494.855 157.23 490.246 157.23C485.598 157.23 481.438 156.41 477.766 154.77C474.094 153.129 471.008 150.863 468.508 147.973C465.969 145.082 464.035 141.684 462.707 137.777C461.379 133.871 460.715 129.594 460.715 124.945V123.715ZM474.719 124.945C474.719 127.797 475.012 130.492 475.598 133.031C476.223 135.57 477.18 137.797 478.469 139.711C479.719 141.625 481.32 143.148 483.273 144.281C485.227 145.375 487.551 145.922 490.246 145.922C492.863 145.922 495.148 145.375 497.102 144.281C499.055 143.148 500.656 141.625 501.906 139.711C503.156 137.797 504.074 135.57 504.66 133.031C505.285 130.492 505.598 127.797 505.598 124.945V123.715C505.598 120.941 505.285 118.285 504.66 115.746C504.035 113.207 503.117 110.98 501.906 109.066C500.617 107.152 498.996 105.629 497.043 104.496C495.129 103.363 492.824 102.797 490.129 102.797C487.473 102.797 485.168 103.363 483.215 104.496C481.301 105.629 479.719 107.152 478.469 109.066C477.18 110.98 476.223 113.207 475.598 115.746C475.012 118.285 474.719 120.941 474.719 123.715V124.945ZM551.711 70.6875L562.258 107.191L573.918 70.6875H591.438V156H578.195V127.055L579.016 88.9688L565.891 129.691H558.566L546.672 90.375L547.434 127.055V156H534.25V70.6875H551.711ZM647.922 156C647.492 155.219 647.141 154.281 646.867 153.188C646.633 152.055 646.418 150.883 646.223 149.672C645.246 150.688 644.133 151.664 642.883 152.602C641.672 153.5 640.305 154.281 638.781 154.945C637.258 155.648 635.617 156.195 633.859 156.586C632.102 156.977 630.207 157.172 628.176 157.172C624.895 157.172 621.887 156.703 619.152 155.766C616.457 154.789 614.152 153.461 612.238 151.781C610.285 150.141 608.762 148.168 607.668 145.863C606.613 143.52 606.086 141 606.086 138.305C606.086 134.828 606.77 131.762 608.137 129.105C609.543 126.41 611.574 124.184 614.23 122.426C616.691 120.785 619.719 119.535 623.312 118.676C626.945 117.816 631.047 117.387 635.617 117.387H645.812V113.109C645.812 111.469 645.52 109.984 644.934 108.656C644.387 107.328 643.586 106.176 642.531 105.199C641.398 104.223 640.012 103.48 638.371 102.973C636.77 102.426 634.914 102.152 632.805 102.152C630.891 102.152 629.211 102.387 627.766 102.855C626.359 103.324 625.188 103.969 624.25 104.789C623.312 105.531 622.609 106.449 622.141 107.543C621.711 108.598 621.496 109.73 621.496 110.941H607.434C607.473 108.402 608.078 105.961 609.25 103.617C610.422 101.273 612.141 99.2031 614.406 97.4062C616.594 95.5703 619.289 94.125 622.492 93.0703C625.734 91.9766 629.426 91.4297 633.566 91.4297C637.277 91.4297 640.734 91.8984 643.938 92.8359C647.18 93.7344 649.973 95.082 652.316 96.8789C654.66 98.6758 656.496 100.961 657.824 103.734C659.152 106.469 659.816 109.633 659.816 113.227V141.41C659.816 144.262 660.012 146.84 660.402 149.145C660.832 151.41 661.438 153.363 662.219 155.004V156H647.922ZM630.871 145.922C632.707 145.922 634.406 145.688 635.969 145.219C637.57 144.75 639.016 144.145 640.305 143.402C641.594 142.66 642.707 141.82 643.645 140.883C644.582 139.945 645.305 138.969 645.812 137.953V126.234H636.789C633.742 126.234 631.105 126.527 628.879 127.113C626.652 127.66 624.875 128.461 623.547 129.516C622.375 130.414 621.496 131.488 620.91 132.738C620.363 133.988 620.09 135.395 620.09 136.957C620.09 138.246 620.324 139.457 620.793 140.59C621.262 141.684 621.945 142.621 622.844 143.402C623.742 144.184 624.855 144.809 626.184 145.277C627.512 145.707 629.074 145.922 630.871 145.922ZM707.629 77.1328V92.6016H731.477V103.09H707.629V133.383C707.629 135.727 707.902 137.699 708.449 139.301C709.035 140.863 709.836 142.094 710.852 142.992C711.867 143.93 713.078 144.594 714.484 144.984C715.891 145.375 717.434 145.57 719.113 145.57C720.324 145.57 721.574 145.512 722.863 145.395C724.152 145.277 725.402 145.121 726.613 144.926C727.785 144.77 728.879 144.594 729.895 144.398C730.949 144.164 731.828 143.969 732.531 143.812L734.055 153.48C733.039 154.105 731.809 154.652 730.363 155.121C728.957 155.551 727.434 155.922 725.793 156.234C724.152 156.547 722.434 156.781 720.637 156.938C718.879 157.133 717.121 157.23 715.363 157.23C712.16 157.23 709.211 156.801 706.516 155.941C703.859 155.043 701.574 153.656 699.66 151.781C697.746 149.945 696.242 147.582 695.148 144.691C694.094 141.801 693.566 138.324 693.566 134.262V103.09H678.215V92.6016H693.566V77.1328H707.629ZM748.996 123.715C748.996 119.105 749.66 114.848 750.988 110.941C752.316 106.996 754.25 103.578 756.789 100.688C759.289 97.7969 762.355 95.5312 765.988 93.8906C769.621 92.25 773.762 91.4297 778.41 91.4297C783.059 91.4297 787.199 92.25 790.832 93.8906C794.504 95.5312 797.609 97.7969 800.148 100.688C802.648 103.578 804.562 106.996 805.891 110.941C807.219 114.848 807.883 119.105 807.883 123.715V124.945C807.883 129.594 807.219 133.871 805.891 137.777C804.562 141.684 802.648 145.082 800.148 147.973C797.648 150.863 794.562 153.129 790.891 154.77C787.258 156.41 783.137 157.23 778.527 157.23C773.879 157.23 769.719 156.41 766.047 154.77C762.375 153.129 759.289 150.863 756.789 147.973C754.25 145.082 752.316 141.684 750.988 137.777C749.66 133.871 748.996 129.594 748.996 124.945V123.715ZM763 124.945C763 127.797 763.293 130.492 763.879 133.031C764.504 135.57 765.461 137.797 766.75 139.711C768 141.625 769.602 143.148 771.555 144.281C773.508 145.375 775.832 145.922 778.527 145.922C781.145 145.922 783.43 145.375 785.383 144.281C787.336 143.148 788.938 141.625 790.188 139.711C791.438 137.797 792.355 135.57 792.941 133.031C793.566 130.492 793.879 127.797 793.879 124.945V123.715C793.879 120.941 793.566 118.285 792.941 115.746C792.316 113.207 791.398 110.98 790.188 109.066C788.898 107.152 787.277 105.629 785.324 104.496C783.41 103.363 781.105 102.797 778.41 102.797C775.754 102.797 773.449 103.363 771.496 104.496C769.582 105.629 768 107.152 766.75 109.066C765.461 110.98 764.504 113.207 763.879 115.746C763.293 118.285 763 120.941 763 123.715V124.945Z" fill="#303030"/>
<defs>
<clipPath id="clip0_54406_939">
<rect width="220" height="220" fill="white"/>
</clipPath>
</defs>
</svg>
